{
	"asset":{
		"generator":"Khronos glTF Blender I/O v4.0.44",
		"version":"2.0"
	},
	"scene":0,
	"scenes":[
		{
			"name":"Scene",
			"nodes":[
				0
			]
		}
	],
	"nodes":[
		{
			"mesh":0,
			"name":"path1",
			"scale":[
				131.56414794921875,
				18.80906105041504,
				131.56414794921875
			],
			"translation":[
				3.3473598957061768,
				0,
				-3.4613261222839355
			]
		}
	],
	"materials":[
		{
			"doubleSided":true,
			"name":"SVGMat.001",
			"pbrMetallicRoughness":{
				"baseColorFactor":[
					0,
					0,
					0,
					1
				],
				"metallicFactor":0,
				"roughnessFactor":0.4000000059604645
			}
		}
	],
	"meshes":[
		{
			"name":"path1",
			"primitives":[
				{
					"attributes":{
						"POSITION":0,
						"NORMAL":1,
						"TEXCOORD_0":2
					},
					"indices":3,
					"material":0
				}
			]
		}
	],
	"accessors":[
		{
			"bufferView":0,
			"componentType":5126,
			"count":4186,
			"max":[
				0.025474369525909424,
				0.00599999725818634,
				0.02630886435508728
			],
			"min":[
				-0.025442400947213173,
				-0.00599999725818634,
				-0.019800061360001564
			],
			"type":"VEC3"
		},
		{
			"bufferView":1,
			"componentType":5126,
			"count":4186,
			"type":"VEC3"
		},
		{
			"bufferView":2,
			"componentType":5126,
			"count":4186,
			"type":"VEC2"
		},
		{
			"bufferView":3,
			"componentType":5123,
			"count":12468,
			"type":"SCALAR"
		}
	],
	"bufferViews":[
		{
			"buffer":0,
			"byteLength":50232,
			"byteOffset":0,
			"target":34962
		},
		{
			"buffer":0,
			"byteLength":50232,
			"byteOffset":50232,
			"target":34962
		},
		{
			"buffer":0,
			"byteLength":33488,
			"byteOffset":100464,
			"target":34962
		},
		{
			"buffer":0,
			"byteLength":24936,
			"byteOffset":133952,
			"target":34963
		}
	],
	"buffers":[
		{
			"byteLength":158888,
			"uri":"model.bin"
		}
	]
}
