# Blender 4.2.1 LTS
# www.blender.org
o Plane
v -10.000000 0.000000 10.000000
v 10.000000 0.000000 10.000000
v -10.000000 0.000000 -10.000000
v 10.000000 0.000000 -10.000000
v -10.000000 0.000000 -7.500000
v -10.000000 0.000000 -5.000000
v -10.000000 0.000000 -2.500000
v -10.000000 0.000000 0.000000
v -10.000000 0.000000 2.500000
v -10.000000 0.000000 5.000000
v -10.000000 0.000000 7.500000
v -7.500000 0.000000 10.000000
v -5.000000 0.000000 10.000000
v -2.500000 0.000000 10.000000
v 0.000000 0.000000 10.000000
v 2.500000 0.000000 10.000000
v 5.000000 0.000000 10.000000
v 7.500000 0.000000 10.000000
v 10.000000 0.000000 7.500000
v 10.000000 0.000000 5.000000
v 10.000000 0.000000 2.500000
v 10.000000 0.000000 0.000000
v 10.000000 0.000000 -2.500000
v 10.000000 0.000000 -5.000000
v 10.000000 0.000000 -7.500000
v 7.500000 0.000000 -10.000000
v 5.000000 0.000000 -10.000000
v 2.500000 0.000000 -10.000000
v 0.000000 0.000000 -10.000000
v -2.500000 0.000000 -10.000000
v -5.000000 0.000000 -10.000000
v -7.500000 0.000000 -10.000000
v -7.500000 0.000000 7.500000
v -7.500000 0.000000 5.000000
v -7.500000 -0.002120 2.500000
v -7.500000 -0.002120 0.000000
v -7.500000 -0.002120 -2.500000
v -7.500000 0.000000 -5.000000
v -7.500000 0.000000 -7.500000
v -5.000000 0.000000 7.500000
v -5.000000 -1.327671 5.000000
v -5.000000 -2.736086 2.500000
v -5.000000 -2.736086 0.000000
v -5.000000 -2.736086 -2.500000
v -5.000000 -1.327671 -5.000000
v -5.000000 0.000000 -7.500000
v -2.500000 -0.002120 7.500000
v -2.500000 -2.736086 5.000000
v -2.500000 -3.207514 2.500000
v -2.500000 -3.207514 0.000000
v -2.500000 -3.207514 -2.500000
v -2.500000 -2.736086 -5.000000
v -2.500000 -0.002120 -7.500000
v 0.000000 -0.002120 7.500000
v 0.000000 -2.736086 5.000000
v 0.000000 -3.207514 2.500000
v 0.000000 -3.207514 0.000000
v 0.000000 -3.207514 -2.500000
v 0.000000 -2.736086 -5.000000
v 0.000000 -0.002120 -7.500000
v 2.500000 -0.002120 7.500000
v 2.500000 -2.736086 5.000000
v 2.500000 -3.207514 2.500000
v 2.500000 -3.207514 0.000000
v 2.500000 -3.207514 -2.500000
v 2.500000 -2.736086 -5.000000
v 2.500000 -0.002120 -7.500000
v 5.000000 0.000000 7.500000
v 5.000000 -1.327671 5.000000
v 5.000000 -2.736086 2.500000
v 5.000000 -2.736086 0.000000
v 5.000000 -2.736086 -2.500000
v 5.000000 -1.327671 -5.000000
v 5.000000 0.000000 -7.500000
v 7.500000 0.000000 7.500000
v 7.500000 0.000000 5.000000
v 7.500000 -0.002120 2.500000
v 7.500000 -0.002120 0.000000
v 7.500000 -0.002120 -2.500000
v 7.500000 0.000000 -5.000000
v 7.500000 0.000000 -7.500000
vn -0.0000 1.0000 -0.0000
vn 0.0004 1.0000 0.0004
vn -0.0000 1.0000 0.0008
vn -0.0004 1.0000 0.0004
vn 0.0004 1.0000 -0.0004
vn 0.0008 1.0000 -0.0000
vn 0.2486 0.9362 -0.2486
vn 0.6159 0.7582 -0.2139
vn 0.7380 0.6748 -0.0000
vn 0.6159 0.7582 0.2139
vn 0.2486 0.9362 0.2486
vn 0.2139 0.7582 -0.6159
vn 0.3320 0.8830 -0.3320
vn 0.1853 0.9827 -0.0000
vn 0.3320 0.8830 0.3320
vn 0.2139 0.7582 0.6159
vn -0.0000 1.0000 -0.0008
vn -0.0000 0.6748 -0.7380
vn -0.0000 0.9827 -0.1853
vn -0.0000 0.9827 0.1853
vn -0.0000 0.6748 0.7380
vn -0.0004 1.0000 -0.0004
vn -0.2139 0.7582 -0.6159
vn -0.3320 0.8830 -0.3320
vn -0.1853 0.9827 -0.0000
vn -0.3320 0.8830 0.3320
vn -0.2139 0.7582 0.6159
vn -0.2486 0.9362 -0.2486
vn -0.6159 0.7582 -0.2139
vn -0.7380 0.6748 -0.0000
vn -0.6159 0.7582 0.2139
vn -0.2486 0.9362 0.2486
vn -0.0008 1.0000 -0.0000
vt 0.875000 0.875000
vt 1.000000 0.875000
vt 1.000000 1.000000
vt 0.875000 1.000000
vt 0.000000 0.875000
vt 0.125000 0.875000
vt 0.125000 1.000000
vt 0.000000 1.000000
vt 0.250000 0.875000
vt 0.250000 1.000000
vt 0.375000 0.875000
vt 0.375000 1.000000
vt 0.500000 0.875000
vt 0.500000 1.000000
vt 0.625000 0.875000
vt 0.625000 1.000000
vt 0.750000 0.875000
vt 0.750000 1.000000
vt 0.000000 0.000000
vt 0.125000 0.000000
vt 0.125000 0.125000
vt 0.000000 0.125000
vt 0.125000 0.250000
vt 0.000000 0.250000
vt 0.125000 0.375000
vt 0.000000 0.375000
vt 0.125000 0.500000
vt 0.000000 0.500000
vt 0.125000 0.625000
vt 0.000000 0.625000
vt 0.125000 0.750000
vt 0.000000 0.750000
vt 0.250000 0.000000
vt 0.250000 0.125000
vt 0.250000 0.250000
vt 0.250000 0.375000
vt 0.250000 0.500000
vt 0.250000 0.625000
vt 0.250000 0.750000
vt 0.375000 0.000000
vt 0.375000 0.125000
vt 0.375000 0.250000
vt 0.375000 0.375000
vt 0.375000 0.500000
vt 0.375000 0.625000
vt 0.375000 0.750000
vt 0.500000 0.000000
vt 0.500000 0.125000
vt 0.500000 0.250000
vt 0.500000 0.375000
vt 0.500000 0.500000
vt 0.500000 0.625000
vt 0.500000 0.750000
vt 0.625000 0.000000
vt 0.625000 0.125000
vt 0.625000 0.250000
vt 0.625000 0.375000
vt 0.625000 0.500000
vt 0.625000 0.625000
vt 0.625000 0.750000
vt 0.750000 0.000000
vt 0.750000 0.125000
vt 0.750000 0.250000
vt 0.750000 0.375000
vt 0.750000 0.500000
vt 0.750000 0.625000
vt 0.750000 0.750000
vt 0.875000 0.000000
vt 0.875000 0.125000
vt 0.875000 0.250000
vt 0.875000 0.375000
vt 0.875000 0.500000
vt 0.875000 0.625000
vt 0.875000 0.750000
vt 1.000000 0.000000
vt 1.000000 0.125000
vt 1.000000 0.250000
vt 1.000000 0.375000
vt 1.000000 0.500000
vt 1.000000 0.625000
vt 1.000000 0.750000
s 0
f 81/1/1 25/2/1 4/3/1 26/4/1
f 5/5/1 39/6/1 32/7/1 3/8/1
f 39/6/1 46/9/1 31/10/1 32/7/1
f 46/9/2 53/11/2 30/12/2 31/10/2
f 53/11/3 60/13/3 29/14/3 30/12/3
f 60/13/3 67/15/3 28/16/3 29/14/3
f 67/15/4 74/17/4 27/18/4 28/16/4
f 74/17/1 81/1/1 26/4/1 27/18/1
f 1/19/1 12/20/1 33/21/1 11/22/1
f 11/22/1 33/21/1 34/23/1 10/24/1
f 10/24/5 34/23/5 35/25/5 9/26/5
f 9/26/6 35/25/6 36/27/6 8/28/6
f 8/28/6 36/27/6 37/29/6 7/30/6
f 7/30/2 37/29/2 38/31/2 6/32/2
f 6/32/1 38/31/1 39/6/1 5/5/1
f 12/20/1 13/33/1 40/34/1 33/21/1
f 33/21/7 40/34/7 41/35/7 34/23/7
f 34/23/8 41/35/8 42/36/8 35/25/8
f 35/25/9 42/36/9 43/37/9 36/27/9
f 36/27/9 43/37/9 44/38/9 37/29/9
f 37/29/10 44/38/10 45/39/10 38/31/10
f 38/31/11 45/39/11 46/9/11 39/6/11
f 13/33/5 14/40/5 47/41/5 40/34/5
f 40/34/12 47/41/12 48/42/12 41/35/12
f 41/35/13 48/42/13 49/43/13 42/36/13
f 42/36/14 49/43/14 50/44/14 43/37/14
f 43/37/14 50/44/14 51/45/14 44/38/14
f 44/38/15 51/45/15 52/46/15 45/39/15
f 45/39/16 52/46/16 53/11/16 46/9/16
f 14/40/17 15/47/17 54/48/17 47/41/17
f 47/41/18 54/48/18 55/49/18 48/42/18
f 48/42/19 55/49/19 56/50/19 49/43/19
f 49/43/1 56/50/1 57/51/1 50/44/1
f 50/44/1 57/51/1 58/52/1 51/45/1
f 51/45/20 58/52/20 59/53/20 52/46/20
f 52/46/21 59/53/21 60/13/21 53/11/21
f 15/47/17 16/54/17 61/55/17 54/48/17
f 54/48/18 61/55/18 62/56/18 55/49/18
f 55/49/19 62/56/19 63/57/19 56/50/19
f 56/50/1 63/57/1 64/58/1 57/51/1
f 57/51/1 64/58/1 65/59/1 58/52/1
f 58/52/20 65/59/20 66/60/20 59/53/20
f 59/53/21 66/60/21 67/15/21 60/13/21
f 16/54/22 17/61/22 68/62/22 61/55/22
f 61/55/23 68/62/23 69/63/23 62/56/23
f 62/56/24 69/63/24 70/64/24 63/57/24
f 63/57/25 70/64/25 71/65/25 64/58/25
f 64/58/25 71/65/25 72/66/25 65/59/25
f 65/59/26 72/66/26 73/67/26 66/60/26
f 66/60/27 73/67/27 74/17/27 67/15/27
f 17/61/1 18/68/1 75/69/1 68/62/1
f 68/62/28 75/69/28 76/70/28 69/63/28
f 69/63/29 76/70/29 77/71/29 70/64/29
f 70/64/30 77/71/30 78/72/30 71/65/30
f 71/65/30 78/72/30 79/73/30 72/66/30
f 72/66/31 79/73/31 80/74/31 73/67/31
f 73/67/32 80/74/32 81/1/32 74/17/32
f 18/68/1 2/75/1 19/76/1 75/69/1
f 75/69/1 19/76/1 20/77/1 76/70/1
f 76/70/22 20/77/22 21/78/22 77/71/22
f 77/71/33 21/78/33 22/79/33 78/72/33
f 78/72/33 22/79/33 23/80/33 79/73/33
f 79/73/4 23/80/4 24/81/4 80/74/4
f 80/74/1 24/81/1 25/2/1 81/1/1
