{
	"asset":{
		"generator":"Khronos glTF Blender I/O v4.2.60",
		"version":"2.0"
	},
	"scene":0,
	"scenes":[
		{
			"name":"Scene",
			"nodes":[
				0,
				1
			]
		}
	],
	"nodes":[
		{
			"mesh":0,
			"name":"ground",
			"scale":[
				10,
				10,
				10
			]
		},
		{
			"mesh":1,
			"name":"water",
			"scale":[
				8.463776588439941,
				8.463776588439941,
				6.9907941818237305
			],
			"translation":[
				-0.7090902924537659,
				-0.6359332203865051,
				-0.41008421778678894
			]
		}
	],
	"materials":[
		{
			"doubleSided":true,
			"name":"Material.001",
			"pbrMetallicRoughness":{
				"metallicFactor":0
			}
		},
		{
			"alphaMode":"BLEND",
			"doubleSided":true,
			"name":"water",
			"pbrMetallicRoughness":{
				"baseColorFactor":[
					0.03866769000887871,
					0.36452823877334595,
					0.8005527257919312,
					0.800000011920929
				],
				"metallicFactor":0,
				"roughnessFactor":0
			}
		}
	],
	"meshes":[
		{
			"name":"Plane",
			"primitives":[
				{
					"attributes":{
						"POSITION":0,
						"NORMAL":1,
						"TEXCOORD_0":2
					},
					"indices":3,
					"material":0
				}
			]
		},
		{
			"name":"Plane.001",
			"primitives":[
				{
					"attributes":{
						"POSITION":4,
						"NORMAL":5,
						"TEXCOORD_0":6
					},
					"indices":7,
					"material":1
				}
			]
		}
	],
	"accessors":[
		{
			"bufferView":0,
			"componentType":5126,
			"count":6799,
			"max":[
				1,
				0,
				1
			],
			"min":[
				-1,
				-0.39818722009658813,
				-1
			],
			"type":"VEC3"
		},
		{
			"bufferView":1,
			"componentType":5126,
			"count":6799,
			"type":"VEC3"
		},
		{
			"bufferView":2,
			"componentType":5126,
			"count":6799,
			"type":"VEC2"
		},
		{
			"bufferView":3,
			"componentType":5123,
			"count":20412,
			"type":"SCALAR"
		},
		{
			"bufferView":4,
			"componentType":5126,
			"count":4,
			"max":[
				1,
				0,
				1
			],
			"min":[
				-1,
				0,
				-1
			],
			"type":"VEC3"
		},
		{
			"bufferView":5,
			"componentType":5126,
			"count":4,
			"type":"VEC3"
		},
		{
			"bufferView":6,
			"componentType":5126,
			"count":4,
			"type":"VEC2"
		},
		{
			"bufferView":7,
			"componentType":5123,
			"count":6,
			"type":"SCALAR"
		}
	],
	"bufferViews":[
		{
			"buffer":0,
			"byteLength":81588,
			"byteOffset":0,
			"target":34962
		},
		{
			"buffer":0,
			"byteLength":81588,
			"byteOffset":81588,
			"target":34962
		},
		{
			"buffer":0,
			"byteLength":54392,
			"byteOffset":163176,
			"target":34962
		},
		{
			"buffer":0,
			"byteLength":40824,
			"byteOffset":217568,
			"target":34963
		},
		{
			"buffer":0,
			"byteLength":48,
			"byteOffset":258392,
			"target":34962
		},
		{
			"buffer":0,
			"byteLength":48,
			"byteOffset":258440,
			"target":34962
		},
		{
			"buffer":0,
			"byteLength":32,
			"byteOffset":258488,
			"target":34962
		},
		{
			"buffer":0,
			"byteLength":12,
			"byteOffset":258520,
			"target":34963
		}
	],
	"buffers":[
		{
			"byteLength":258532,
			"uri":"map.bin"
		}
	]
}
