{
	"asset":{
		"generator":"Khronos glTF Blender I/O v4.0.44",
		"version":"2.0"
	},
	"scene":0,
	"scenes":[
		{
			"name":"Scene",
			"nodes":[
				0
			]
		}
	],
	"nodes":[
		{
			"mesh":0,
			"name":"FishWarning"
		}
	],
	"materials":[
		{
			"doubleSided":true,
			"name":"Material",
			"pbrMetallicRoughness":{
				"baseColorFactor":[
					0.8028851747512817,
					0.5950448513031006,
					0,
					1
				],
				"metallicFactor":0,
				"roughnessFactor":0.5
			}
		}
	],
	"meshes":[
		{
			"name":"Sphere",
			"primitives":[
				{
					"attributes":{
						"POSITION":0,
						"NORMAL":1,
						"TEXCOORD_0":2
					},
					"indices":3,
					"material":0
				}
			]
		}
	],
	"accessors":[
		{
			"bufferView":0,
			"componentType":5126,
			"count":800,
			"max":[
				1.7234824895858765,
				6.590952396392822,
				1.7234816551208496
			],
			"min":[
				-1.7234824895858765,
				-1,
				-1.7234833240509033
			],
			"type":"VEC3"
		},
		{
			"bufferView":1,
			"componentType":5126,
			"count":800,
			"type":"VEC3"
		},
		{
			"bufferView":2,
			"componentType":5126,
			"count":800,
			"type":"VEC2"
		},
		{
			"bufferView":3,
			"componentType":5123,
			"count":1188,
			"type":"SCALAR"
		}
	],
	"bufferViews":[
		{
			"buffer":0,
			"byteLength":9600,
			"byteOffset":0,
			"target":34962
		},
		{
			"buffer":0,
			"byteLength":9600,
			"byteOffset":9600,
			"target":34962
		},
		{
			"buffer":0,
			"byteLength":6400,
			"byteOffset":19200,
			"target":34962
		},
		{
			"buffer":0,
			"byteLength":2376,
			"byteOffset":25600,
			"target":34963
		}
	],
	"buffers":[
		{
			"byteLength":27976,
			"uri":"model.bin"
		}
	]
}
