# Blender 4.2.1 LTS
# www.blender.org
o Cylinder
v 0.000000 3.073745 -0.050000
v 0.000000 43.073746 -0.050000
v 0.029389 3.073745 -0.040451
v 0.029389 43.073746 -0.040451
v 0.047553 3.073745 -0.015451
v 0.047553 43.073746 -0.015451
v 0.047553 3.073745 0.015451
v 0.047553 43.073746 0.015451
v 0.029389 3.073745 0.040451
v 0.029389 43.073746 0.040451
v 0.000000 3.073745 0.050000
v 0.000000 43.073746 0.050000
v -0.029389 3.073745 0.040451
v -0.029389 43.073746 0.040451
v -0.047553 3.073745 0.015451
v -0.047553 43.073746 0.015451
v -0.047553 3.073745 -0.015451
v -0.047553 43.073746 -0.015451
v -0.029389 3.073745 -0.040451
v -0.029389 43.073746 -0.040451
v 0.650000 -6.926255 -1.000000
v 0.650000 3.073745 -1.000000
v 1.237785 -6.926255 -0.809017
v 1.237785 3.073745 -0.809017
v 1.601056 -6.926255 -0.309017
v 1.601056 3.073745 -0.309017
v 1.601056 -6.926255 0.309017
v 1.601056 3.073745 0.309017
v 1.237785 -6.926255 0.809017
v 1.237785 3.073745 0.809017
v 0.650000 -6.926255 1.000000
v 0.650000 3.073745 1.000000
v 0.062215 -6.926255 0.809017
v 0.062215 3.073745 0.809017
v -0.301057 -6.926255 0.309017
v -0.301057 3.073745 0.309017
v -0.301057 -6.926255 -0.309017
v -0.301057 3.073745 -0.309017
v 0.062215 -6.926255 -0.809017
v 0.062215 3.073745 -0.809017
v -1.150000 0.073745 -1.050000
v -1.550000 0.073745 -1.050000
v -1.150000 0.690920 -0.849468
v -1.550000 0.690920 -0.849468
v -1.150000 1.072354 -0.324468
v -1.550000 1.072354 -0.324468
v -1.150000 1.072354 0.324468
v -1.550000 1.072354 0.324468
v -1.150000 0.690920 0.849468
v -1.550000 0.690920 0.849468
v -1.150000 0.073745 1.050000
v -1.550000 0.073745 1.050000
v -1.150000 -0.543430 0.849468
v -1.550000 -0.543430 0.849468
v -1.150000 -0.924864 0.324468
v -1.550000 -0.924864 0.324468
v -1.150000 -0.924864 -0.324468
v -1.550000 -0.924864 -0.324468
v -1.150000 -0.543430 -0.849468
v -1.550000 -0.543430 -0.849468
v -2.450000 1.673744 0.000000
v -2.850000 1.673744 -0.000000
v -2.450000 1.654646 0.058779
v -2.850000 1.654646 0.058779
v -2.450000 1.604645 0.095106
v -2.850000 1.604645 0.095106
v -2.450000 1.542842 0.095106
v -2.850000 1.542842 0.095106
v -2.450000 1.492841 0.058779
v -2.850000 1.492841 0.058779
v -2.450000 1.473744 0.000000
v -2.850000 1.473744 -0.000000
v -2.450000 1.492841 -0.058779
v -2.850000 1.492841 -0.058779
v -2.450000 1.542842 -0.095106
v -2.850000 1.542842 -0.095106
v -2.450000 1.604645 -0.095106
v -2.850000 1.604645 -0.095106
v -2.450000 1.654646 -0.058779
v -2.850000 1.654646 -0.058779
v 0.650000 0.073745 -1.000000
v -1.350000 0.073745 -1.000000
v 0.650000 0.661530 -0.809017
v -1.350000 0.661530 -0.809017
v 0.650000 1.024802 -0.309017
v -1.350000 1.024802 -0.309017
v 0.650000 1.024802 0.309017
v -1.350000 1.024802 0.309017
v 0.650000 0.661530 0.809017
v -1.350000 0.661530 0.809017
v 0.650000 0.073745 1.000000
v -1.350000 0.073745 1.000000
v 0.650000 -0.514040 0.809017
v -1.350000 -0.514040 0.809017
v 0.650000 -0.877311 0.309017
v -1.350000 -0.877311 0.309017
v 0.650000 -0.877311 -0.309017
v -1.350000 -0.877311 -0.309017
v 0.650000 -0.514040 -0.809017
v -1.350000 -0.514040 -0.809017
v -1.200000 0.073745 -0.200000
v -2.500000 0.073745 -0.200000
v -1.200000 0.191302 -0.161803
v -2.500000 0.191302 -0.161803
v -1.200000 0.263956 -0.061803
v -2.500000 0.263956 -0.061803
v -1.200000 0.263956 0.061803
v -2.500000 0.263956 0.061803
v -1.200000 0.191302 0.161803
v -2.500000 0.191302 0.161803
v -1.200000 0.073745 0.200000
v -2.500000 0.073745 0.200000
v -1.200000 -0.043812 0.161803
v -2.500000 -0.043812 0.161803
v -1.200000 -0.116465 0.061803
v -2.500000 -0.116465 0.061803
v -1.200000 -0.116465 -0.061803
v -2.500000 -0.116465 -0.061803
v -1.200000 -0.043812 -0.161803
v -2.500000 -0.043812 -0.161803
v 0.650000 -1.926255 -1.000000
v 0.454910 -1.926255 -0.980785
v 0.267317 -1.926255 -0.923879
v 0.094430 -1.926255 -0.831470
v -0.057107 -1.926255 -0.707107
v -0.181470 -1.926255 -0.555570
v -0.273879 -1.926255 -0.382683
v -0.330785 -1.926255 -0.195090
v -0.350000 -1.926255 0.000000
v -0.330785 -1.926255 0.195090
v -0.273879 -1.926255 0.382683
v -0.181470 -1.926255 0.555570
v -0.057107 -1.926255 0.707107
v 0.094430 -1.926255 0.831470
v 0.267317 -1.926255 0.923879
v 0.454910 -1.926255 0.980785
v 0.650000 -1.926255 1.000000
v 0.845090 -1.926255 0.980785
v 1.032683 -1.926255 0.923879
v 1.205570 -1.926255 0.831470
v 1.357107 -1.926255 0.707107
v 1.481470 -1.926255 0.555570
v 1.573879 -1.926255 0.382683
v 1.630785 -1.926255 0.195090
v 1.650000 -1.926255 0.000000
v 1.630785 -1.926255 -0.195090
v 1.573879 -1.926255 -0.382683
v 1.481470 -1.926255 -0.555570
v 1.357107 -1.926255 -0.707107
v 1.205570 -1.926255 -0.831470
v 1.032683 -1.926255 -0.923879
v 0.845090 -1.926255 -0.980785
v -2.500000 1.423743 0.150000
v -2.500000 1.723745 0.150000
v -2.500000 1.423743 -0.150000
v -2.500000 1.723745 -0.150000
v -2.200000 1.423743 0.150000
v -2.200000 1.723745 0.150000
v -2.200000 1.423743 -0.150000
v -2.200000 1.723745 -0.150000
v -2.350000 0.173745 -0.086181
v -2.350000 1.473746 -0.086181
v -2.291221 0.173745 -0.067082
v -2.291221 1.473746 -0.067082
v -2.254894 0.173745 -0.017082
v -2.254894 1.473746 -0.017082
v -2.254894 0.173745 0.044721
v -2.254894 1.473746 0.044721
v -2.291221 0.173745 0.094721
v -2.291221 1.473746 0.094721
v -2.350000 0.173745 0.113819
v -2.350000 1.473746 0.113819
v -2.408778 0.173745 0.094721
v -2.408778 1.473746 0.094721
v -2.445105 0.173745 0.044721
v -2.445105 1.473746 0.044721
v -2.445105 0.173745 -0.017082
v -2.445105 1.473746 -0.017082
v -2.408778 0.173745 -0.067082
v -2.408778 1.473746 -0.067082
v 0.650000 3.073745 -0.650000
v 0.650000 43.073738 -0.650000
v 1.032060 3.073745 -0.525861
v 1.032060 43.073738 -0.525861
v 1.268187 3.073745 -0.200861
v 1.268187 43.073738 -0.200861
v 1.268187 3.073745 0.200861
v 1.268187 43.073738 0.200861
v 1.032060 3.073745 0.525861
v 1.032060 43.073738 0.525861
v 0.650000 3.073745 0.650000
v 0.650000 43.073738 0.650000
v 0.267940 3.073745 0.525861
v 0.267940 43.073738 0.525861
v 0.031813 3.073745 0.200861
v 0.031813 43.073738 0.200861
v 0.031813 3.073745 -0.200861
v 0.031813 43.073738 -0.200861
v 0.267940 3.073745 -0.525861
v 0.267940 43.073738 -0.525861
vn 0.3090 -0.0000 -0.9511
vn 0.8090 -0.0000 -0.5878
vn 1.0000 -0.0000 -0.0000
vn 0.8090 -0.0000 0.5878
vn 0.3090 -0.0000 0.9511
vn -0.3090 -0.0000 0.9511
vn -0.8090 -0.0000 0.5878
vn -1.0000 -0.0000 -0.0000
vn -0.0000 1.0000 -0.0000
vn -0.8090 -0.0000 -0.5878
vn -0.3090 -0.0000 -0.9511
vn -0.0000 -1.0000 -0.0000
vn -0.0000 0.3090 -0.9511
vn -0.0000 0.8090 -0.5878
vn -0.0000 0.8090 0.5878
vn -0.0000 0.3090 0.9511
vn -0.0000 -0.3090 0.9511
vn -0.0000 -0.8090 0.5878
vn -0.0000 -0.8090 -0.5878
vn -0.0000 -0.3090 -0.9511
vn -0.0000 0.9511 0.3090
vn -0.0000 0.5878 0.8090
vn -0.0000 -0.0000 1.0000
vn -0.0000 -0.5878 0.8090
vn -0.0000 -0.9511 0.3090
vn -0.0000 -0.9511 -0.3090
vn -0.0000 -0.5878 -0.8090
vn -0.0000 -0.0000 -1.0000
vn -0.0000 0.5878 -0.8090
vn -0.0000 0.9511 -0.3090
vn -0.0002 1.0000 -0.0000
vn 0.0004 1.0000 -0.0000
vt -0.000000 0.000000
vt 0.091725 0.091725
vt 0.000000 0.091725
vt -0.000000 0.091725
vt 0.091725 0.183451
vt 0.000000 0.183451
vt 0.091725 -0.000000
vt 0.183451 0.091725
vt 0.183451 0.183451
vt -0.000000 0.183451
vt 0.091725 0.275176
vt 0.000000 0.275176
vt 0.183451 0.000000
vt 0.275176 0.091725
vt 0.183451 0.091725
vt 0.275176 0.183451
vt 0.183451 0.275176
vt 0.896104 0.192210
vt 0.825528 0.243486
vt 0.869146 0.275176
vt 0.275176 0.275176
vt -0.000000 0.275176
vt 0.091725 0.366901
vt 0.000000 0.366901
vt 0.896104 0.283935
vt 0.825528 0.335211
vt 0.869146 0.366901
vt 0.275176 -0.000000
vt 0.366901 0.091725
vt 0.091725 0.275176
vt 0.183451 0.366901
vt 0.275176 0.091725
vt 0.366901 0.183451
vt 0.275176 0.183451
vt 0.275176 0.366901
vt 0.275176 0.183451
vt 0.366901 0.275176
vt 0.275176 0.275176
vt 0.366901 0.366901
vt -0.000000 0.366901
vt 0.091725 0.458627
vt 0.000000 0.458627
vt 0.366901 -0.000000
vt 0.458627 0.091725
vt 0.896103 0.375660
vt 0.825528 0.426936
vt 0.869146 0.458627
vt 0.366901 0.091725
vt 0.458627 0.183451
vt 0.091725 0.366901
vt 0.183451 0.458627
vt 0.896103 0.467386
vt 0.825528 0.518662
vt 0.869146 0.550352
vt 0.275176 0.458627
vt 0.458627 0.275176
vt 0.458627 0.366901
vt 0.366901 0.458627
vt 0.458627 0.458627
vt 0.458627 0.000000
vt 0.550352 0.091725
vt 0.458627 0.091725
vt 0.000000 0.550352
vt 0.091725 0.550352
vt 0.550352 0.183451
vt 0.896103 0.559111
vt 0.825528 0.610387
vt 0.869146 0.642077
vt 0.183451 0.550352
vt 0.275176 0.550352
vt 0.896104 0.650836
vt 0.825528 0.702112
vt 0.869146 0.733803
vt 0.550352 0.275176
vt 0.458627 0.275176
vt 0.366901 0.550352
vt 0.550352 0.366901
vt 0.458627 0.550352
vt 0.550352 0.458627
vt 0.458627 0.458627
vt 0.550352 0.550352
vt 0.458627 0.550352
vt 0.550352 -0.000000
vt 0.642077 0.091725
vt -0.000000 0.550352
vt 0.091725 0.642077
vt 0.000000 0.642077
vt 0.896104 0.742562
vt 0.825528 0.793838
vt 0.869146 0.825528
vt 0.642077 0.183451
vt 0.183451 0.642077
vt 0.345751 0.834287
vt 0.275176 0.885563
vt 0.318794 0.917253
vt 0.183451 0.550352
vt 0.275176 0.642077
vt 0.642077 0.275176
vt 0.550352 0.275176
vt 0.642077 0.366901
vt 0.550352 0.366901
vt 0.366901 0.642077
vt 0.642077 0.458627
vt 0.550352 0.458627
vt 0.458627 0.642077
vt 0.550352 0.458627
vt 0.642077 0.550352
vt 0.550352 0.550352
vt 0.550352 0.642077
vt 0.458627 0.642077
vt 0.432987 0.834287
vt 0.362412 0.885563
vt 0.406030 0.917253
vt 0.642077 0.642077
vt 0.642077 0.000000
vt 0.733803 0.091725
vt 0.642077 0.091725
vt 0.520223 0.834287
vt 0.449648 0.885563
vt 0.493266 0.917253
vt -0.000000 0.642077
vt 0.091725 0.733803
vt 0.000000 0.733803
vt 0.733803 0.183451
vt 0.091725 0.642077
vt 0.183451 0.733803
vt 0.733803 0.275176
vt 0.275176 0.733803
vt 0.366901 0.733803
vt 0.275176 0.733803
vt 0.642077 0.275176
vt 0.733803 0.366901
vt 0.733803 0.458627
vt 0.607459 0.834287
vt 0.536884 0.885563
vt 0.580502 0.917253
vt 0.458627 0.733803
vt 0.550352 0.733803
vt 0.458627 0.733803
vt 0.694695 0.834287
vt 0.624120 0.885563
vt 0.667738 0.917253
vt 0.733803 0.550352
vt 0.642077 0.733803
vt 0.733803 0.642077
vt 0.733803 0.733803
vt 0.733803 0.000000
vt 0.825528 0.091725
vt -0.000000 0.733803
vt 0.091725 0.825528
vt 0.000000 0.825528
vt 0.733803 0.091725
vt 0.825528 0.183451
vt 0.091725 0.733803
vt 0.183451 0.825528
vt 0.825528 0.275176
vt 0.275176 0.825528
vt 0.733803 0.275176
vt 0.825528 0.366901
vt 0.366901 0.825528
vt 0.458627 0.825528
vt 0.825528 0.458627
vt 0.781931 0.834287
vt 0.711356 0.885563
vt 0.754974 0.917253
vt 0.825528 0.550352
vt 0.550352 0.825528
vt 0.869167 0.834287
vt 0.798592 0.885563
vt 0.842210 0.917254
vt 0.825528 0.642077
vt 0.642077 0.825528
vt 0.825528 0.733803
vt 0.733803 0.825528
vt 0.825528 0.825528
vt 0.825528 -0.000000
vt 0.917253 0.091725
vt -0.000000 0.825528
vt 0.091725 0.917253
vt 0.000000 0.917253
vt 0.825528 0.091725
vt 0.917253 0.183451
vt 0.825528 0.183451
vt 0.956403 0.834287
vt 0.885828 0.885563
vt 0.929446 0.917253
vt 0.183451 0.917253
vt 0.183451 0.825528
vt 0.275176 0.917253
vt 0.983339 0.192210
vt 0.912764 0.243486
vt 0.956382 0.275176
vt 0.091725 -0.000000
vt 0.183451 -0.000000
vt 0.275176 0.091725
vt 0.896104 0.266417
vt 0.912764 0.243486
vt 0.912764 0.215141
vt 0.869146 0.183451
vt 0.842189 0.192210
vt 0.825528 0.215141
vt 0.842189 0.266417
vt 0.896104 0.358142
vt 0.912764 0.335211
vt 0.912764 0.306866
vt 0.869146 0.275176
vt 0.842189 0.283935
vt 0.825528 0.306866
vt 0.842189 0.358142
vt 0.458627 -0.000000
vt 0.896103 0.449868
vt 0.912764 0.426936
vt 0.912764 0.398592
vt 0.869146 0.366901
vt 0.842189 0.375660
vt 0.825528 0.398592
vt 0.842189 0.449868
vt 0.896103 0.541593
vt 0.912764 0.518662
vt 0.912764 0.490317
vt 0.869146 0.458627
vt 0.842189 0.467386
vt 0.825528 0.490317
vt 0.842189 0.541593
vt 0.458627 0.183451
vt -0.000000 0.458627
vt 0.896103 0.633318
vt 0.912764 0.610387
vt 0.912764 0.582042
vt 0.842189 0.559111
vt 0.825528 0.582042
vt 0.842189 0.633318
vt 0.896104 0.725044
vt 0.912764 0.702112
vt 0.912764 0.673768
vt 0.869146 0.642077
vt 0.842189 0.650836
vt 0.825528 0.673768
vt 0.842189 0.725044
vt 0.550352 0.275176
vt 0.550352 0.458627
vt 0.642077 -0.000000
vt 0.896104 0.816769
vt 0.912764 0.793838
vt 0.912764 0.765493
vt 0.842189 0.742562
vt 0.825528 0.765493
vt 0.842189 0.816769
vt 0.345751 0.908494
vt 0.362412 0.885563
vt 0.362412 0.857218
vt 0.318794 0.825528
vt 0.291837 0.834287
vt 0.275176 0.857218
vt 0.291837 0.908494
vt 0.432987 0.908494
vt 0.449648 0.885563
vt 0.449648 0.857218
vt 0.406030 0.825528
vt 0.379073 0.834287
vt 0.362412 0.857218
vt 0.379073 0.908494
vt 0.520223 0.908494
vt 0.536884 0.857218
vt 0.493266 0.825528
vt 0.466309 0.834287
vt 0.449648 0.857218
vt 0.466309 0.908494
vt 0.607459 0.908494
vt 0.624120 0.857218
vt 0.580502 0.825528
vt 0.553545 0.834287
vt 0.553545 0.908494
vt 0.694695 0.908494
vt 0.711356 0.885563
vt 0.711356 0.857218
vt 0.667738 0.825528
vt 0.640781 0.834287
vt 0.640781 0.908494
vt 0.825528 0.091725
vt 0.825528 0.275176
vt 0.781931 0.908495
vt 0.798592 0.885563
vt 0.798592 0.857219
vt 0.754974 0.825528
vt 0.728017 0.834287
vt 0.711356 0.857219
vt 0.728017 0.908495
vt 0.825528 0.458627
vt 0.869167 0.908495
vt 0.885828 0.885563
vt 0.885828 0.857219
vt 0.842210 0.825528
vt 0.815253 0.834287
vt 0.798592 0.857219
vt 0.815253 0.908495
vt 0.917253 -0.000000
vt 0.917253 0.091725
vt 0.956403 0.908494
vt 0.973064 0.885563
vt 0.973064 0.857219
vt 0.929446 0.825528
vt 0.902488 0.834287
vt 0.885828 0.857219
vt 0.902488 0.908495
vt 0.983339 0.266417
vt 1.000000 0.243486
vt 1.000000 0.215141
vt 0.956382 0.183451
vt 0.929425 0.192210
vt 0.912764 0.215141
vt 0.929425 0.266417
s 0
f 2/1/1 3/2/1 1/3/1
f 4/4/2 5/5/2 3/6/2
f 6/7/3 7/8/3 5/2/3
f 8/2/4 9/9/4 7/5/4
f 10/10/5 11/11/5 9/12/5
f 12/13/6 13/14/6 11/15/6
f 14/8/7 15/16/7 13/9/7
f 16/5/8 17/17/8 15/11/8
f 18/18/9 10/19/9 6/20/9
f 18/9/10 19/21/10 17/17/10
f 20/22/11 1/23/11 19/24/11
f 7/25/12 15/26/12 19/27/12
f 22/28/1 23/29/1 21/14/1
f 24/30/2 25/31/2 23/23/2
f 26/32/3 27/33/3 25/34/3
f 28/17/4 29/35/4 27/31/4
f 30/36/5 31/37/5 29/38/5
f 32/21/6 33/39/6 31/35/6
f 34/40/7 35/41/7 33/42/7
f 36/43/8 37/44/8 35/29/8
f 38/45/9 30/46/9 26/47/9
f 38/48/10 39/49/10 37/33/10
f 40/50/11 21/51/11 39/41/11
f 27/52/12 35/53/12 39/54/12
f 42/31/13 43/55/13 41/51/13
f 44/33/14 45/56/14 43/37/14
f 46/37/9 47/57/9 45/39/9
f 47/55/15 50/39/15 49/58/15
f 50/39/16 51/59/16 49/58/16
f 52/60/17 53/61/17 51/62/17
f 53/63/18 56/41/18 55/64/18
f 56/62/12 57/65/12 55/49/12
f 58/66/8 50/67/8 46/68/8
f 58/41/19 59/69/19 57/64/19
f 60/51/20 41/70/20 59/69/20
f 47/71/3 55/72/3 59/73/3
f 62/49/21 63/74/21 61/75/21
f 64/55/22 65/76/22 63/70/22
f 66/75/23 67/77/23 65/57/23
f 68/58/24 69/78/24 67/76/24
f 70/57/25 71/79/25 69/59/25
f 72/80/26 73/81/26 71/82/26
f 74/83/27 75/84/27 73/61/27
f 76/85/28 77/86/28 75/87/28
f 78/88/8 70/89/8 66/90/8
f 78/61/29 79/91/29 77/65/29
f 80/64/30 61/92/30 79/86/30
f 67/93/3 75/94/3 79/95/3
f 82/96/13 83/97/13 81/92/13
f 84/65/14 85/98/14 83/74/14
f 86/99/9 87/100/9 85/101/9
f 88/70/15 89/102/15 87/97/15
f 90/101/16 91/103/16 89/104/16
f 92/76/17 93/105/17 91/102/17
f 94/106/18 95/107/18 93/108/18
f 96/82/12 97/109/12 95/110/12
f 98/111/8 90/112/8 86/113/8
f 98/108/19 99/114/19 97/109/19
f 100/115/20 81/116/20 99/117/20
f 87/118/3 95/119/3 99/120/3
f 102/121/13 103/122/13 101/123/13
f 104/84/14 105/124/14 103/91/14
f 106/125/9 107/126/9 105/122/9
f 108/91/15 109/127/15 107/98/15
f 110/92/16 111/128/16 109/126/16
f 112/97/17 113/129/17 111/130/17
f 114/131/18 115/132/18 113/100/18
f 116/100/12 117/133/12 115/103/12
f 118/134/8 110/135/8 106/136/8
f 118/102/19 119/137/19 117/129/19
f 120/110/20 101/138/20 119/139/20
f 107/140/3 115/141/3 119/142/3
f 154/103/8 155/143/8 153/107/8
f 156/109/28 159/144/28 155/138/28
f 160/107/3 157/145/3 159/114/3
f 158/114/23 153/146/23 157/144/23
f 159/147/12 153/148/12 155/116/12
f 156/149/9 158/150/9 160/151/9
f 162/152/1 163/153/1 161/124/1
f 164/154/2 165/155/2 163/150/2
f 166/124/3 167/156/3 165/127/3
f 168/126/4 169/157/4 167/155/4
f 170/158/5 171/159/5 169/132/5
f 172/128/6 173/160/6 171/157/6
f 174/129/7 175/161/7 173/160/7
f 176/132/8 177/162/8 175/133/8
f 178/163/9 170/164/9 166/165/9
f 178/133/10 179/166/10 177/143/10
f 180/139/11 161/167/11 179/161/11
f 167/168/12 175/169/12 179/170/12
f 182/143/1 183/171/1 181/145/1
f 184/138/2 185/172/2 183/167/2
f 186/145/3 187/173/3 185/146/3
f 188/144/4 189/174/4 187/172/4
f 190/146/5 191/175/5 189/174/5
f 192/176/6 193/177/6 191/148/6
f 194/178/7 195/179/7 193/180/7
f 196/181/8 197/182/8 195/183/8
f 198/184/9 190/185/9 186/186/9
f 198/150/10 199/187/10 197/179/10
f 200/188/11 181/189/11 199/187/11
f 187/190/12 195/191/12 199/192/12
f 2/1/1 4/193/1 3/2/1
f 4/4/2 6/2/2 5/5/2
f 6/7/3 8/194/3 7/8/3
f 8/2/4 10/8/4 9/9/4
f 10/10/5 12/5/5 11/11/5
f 12/13/6 14/28/6 13/14/6
f 14/8/7 16/195/7 15/16/7
f 16/5/8 18/9/8 17/17/8
f 6/20/31 4/196/31 2/197/31
f 2/197/32 20/198/32 18/18/32
f 18/18/9 16/199/9 14/200/9
f 14/200/9 12/201/9 10/19/9
f 10/19/9 8/202/9 6/20/9
f 6/20/9 2/197/9 18/18/9
f 18/18/9 14/200/9 10/19/9
f 18/9/10 20/16/10 19/21/10
f 20/22/11 2/11/11 1/23/11
f 19/27/12 1/203/12 3/204/12
f 3/204/12 5/205/12 7/25/12
f 7/25/12 9/206/12 11/207/12
f 11/207/12 13/208/12 15/26/12
f 15/26/12 17/209/12 19/27/12
f 19/27/12 3/204/12 7/25/12
f 7/25/12 11/207/12 15/26/12
f 22/28/1 24/43/1 23/29/1
f 24/30/2 26/17/2 25/31/2
f 26/32/3 28/48/3 27/33/3
f 28/17/4 30/21/4 29/35/4
f 30/36/5 32/33/5 31/37/5
f 32/21/6 34/37/6 33/39/6
f 34/40/7 36/23/7 35/41/7
f 36/43/8 38/210/8 37/44/8
f 26/47/9 24/211/9 22/212/9
f 22/212/9 40/213/9 38/45/9
f 38/45/9 36/214/9 34/215/9
f 34/215/9 32/216/9 30/46/9
f 30/46/9 28/217/9 26/47/9
f 26/47/9 22/212/9 38/45/9
f 38/45/9 34/215/9 30/46/9
f 38/48/10 40/62/10 39/49/10
f 40/50/11 22/31/11 21/51/11
f 39/54/12 21/218/12 23/219/12
f 23/219/12 25/220/12 27/52/12
f 27/52/12 29/221/12 31/222/12
f 31/222/12 33/223/12 35/53/12
f 35/53/12 37/224/12 39/54/12
f 39/54/12 23/219/12 27/52/12
f 27/52/12 31/222/12 35/53/12
f 42/31/13 44/35/13 43/55/13
f 44/33/14 46/225/14 45/56/14
f 46/37/9 48/56/9 47/57/9
f 47/55/15 48/35/15 50/39/15
f 50/39/16 52/57/16 51/59/16
f 52/60/17 54/83/17 53/61/17
f 53/63/18 54/226/18 56/41/18
f 56/62/12 58/61/12 57/65/12
f 46/68/8 44/227/8 42/228/8
f 42/228/8 60/229/8 58/66/8
f 58/66/8 56/54/8 54/230/8
f 54/230/8 52/231/8 50/67/8
f 50/67/8 48/232/8 46/68/8
f 46/68/8 42/228/8 58/66/8
f 58/66/8 54/230/8 50/67/8
f 58/41/19 60/51/19 59/69/19
f 60/51/20 42/55/20 41/70/20
f 59/73/3 41/233/3 43/234/3
f 43/234/3 45/235/3 47/71/3
f 47/71/3 49/236/3 51/237/3
f 51/237/3 53/238/3 55/72/3
f 55/72/3 57/239/3 59/73/3
f 59/73/3 43/234/3 47/71/3
f 47/71/3 51/237/3 55/72/3
f 62/49/21 64/65/21 63/74/21
f 64/55/22 66/58/22 65/76/22
f 66/75/23 68/240/23 67/77/23
f 68/58/24 70/59/24 69/78/24
f 70/57/25 72/77/25 71/79/25
f 72/80/26 74/241/26 73/81/26
f 74/83/27 76/242/27 75/84/27
f 76/85/28 78/64/28 77/86/28
f 66/90/8 64/243/8 62/244/8
f 62/244/8 80/245/8 78/88/8
f 78/88/8 76/73/8 74/246/8
f 74/246/8 72/247/8 70/89/8
f 70/89/8 68/248/8 66/90/8
f 66/90/8 62/244/8 78/88/8
f 78/88/8 74/246/8 70/89/8
f 78/61/29 80/84/29 79/91/29
f 80/64/30 62/69/30 61/92/30
f 79/95/3 61/249/3 63/250/3
f 63/250/3 65/251/3 67/93/3
f 67/93/3 69/252/3 71/253/3
f 71/253/3 73/254/3 75/94/3
f 75/94/3 77/255/3 79/95/3
f 79/95/3 63/250/3 67/93/3
f 67/93/3 71/253/3 75/94/3
f 82/96/13 84/70/13 83/97/13
f 84/65/14 86/91/14 85/98/14
f 86/99/9 88/131/9 87/100/9
f 88/70/15 90/76/15 89/102/15
f 90/101/16 92/100/16 91/103/16
f 92/76/17 94/78/17 93/105/17
f 94/106/18 96/103/18 95/107/18
f 96/82/12 98/81/12 97/109/12
f 86/113/8 84/256/8 82/257/8
f 82/257/8 100/258/8 98/111/8
f 98/111/8 96/259/8 94/260/8
f 94/260/8 92/261/8 90/112/8
f 90/112/8 88/262/8 86/113/8
f 86/113/8 82/257/8 98/111/8
f 98/111/8 94/260/8 90/112/8
f 98/108/19 100/107/19 99/114/19
f 100/115/20 82/147/20 81/116/20
f 99/120/3 81/263/3 83/135/3
f 83/135/3 85/264/3 87/118/3
f 87/118/3 89/265/3 91/266/3
f 91/266/3 93/267/3 95/119/3
f 95/119/3 97/268/3 99/120/3
f 99/120/3 83/135/3 87/118/3
f 87/118/3 91/266/3 95/119/3
f 102/121/13 104/86/13 103/122/13
f 104/84/14 106/152/14 105/124/14
f 106/125/9 108/92/9 107/126/9
f 108/91/15 110/124/15 109/127/15
f 110/92/16 112/97/16 111/128/16
f 112/97/17 114/102/17 113/129/17
f 114/131/18 116/158/18 115/132/18
f 116/100/12 118/132/12 117/133/12
f 106/136/8 104/269/8 102/141/8
f 102/141/8 120/270/8 118/134/8
f 118/134/8 116/271/8 114/272/8
f 114/272/8 112/264/8 110/135/8
f 110/135/8 108/273/8 106/136/8
f 106/136/8 102/141/8 118/134/8
f 118/134/8 114/272/8 110/135/8
f 118/102/19 120/105/19 119/137/19
f 120/110/20 102/109/20 101/138/20
f 119/142/3 101/274/3 103/275/3
f 103/275/3 105/276/3 107/140/3
f 107/140/3 109/277/3 111/278/3
f 111/278/3 113/270/3 115/141/3
f 115/141/3 117/279/3 119/142/3
f 119/142/3 103/275/3 107/140/3
f 107/140/3 111/278/3 115/141/3
f 154/103/8 156/133/8 155/143/8
f 156/109/28 160/114/28 159/144/28
f 160/107/3 158/143/3 157/145/3
f 158/114/23 154/145/23 153/146/23
f 159/147/12 157/176/12 153/148/12
f 156/149/9 154/122/9 158/150/9
f 162/152/1 164/280/1 163/153/1
f 164/154/2 166/126/2 165/155/2
f 166/124/3 168/153/3 167/156/3
f 168/126/4 170/128/4 169/157/4
f 170/158/5 172/281/5 171/159/5
f 172/128/6 174/129/6 173/160/6
f 174/129/7 176/139/7 175/161/7
f 176/132/8 178/159/8 177/162/8
f 166/165/9 164/282/9 162/283/9
f 162/283/9 180/284/9 178/163/9
f 178/163/9 176/285/9 174/286/9
f 174/286/9 172/287/9 170/164/9
f 170/164/9 168/288/9 166/165/9
f 166/165/9 162/283/9 178/163/9
f 178/163/9 174/286/9 170/164/9
f 178/133/10 180/289/10 179/166/10
f 180/139/11 162/138/11 161/167/11
f 179/170/12 161/290/12 163/291/12
f 163/291/12 165/292/12 167/168/12
f 167/168/12 169/293/12 171/294/12
f 171/294/12 173/295/12 175/169/12
f 175/169/12 177/296/12 179/170/12
f 179/170/12 163/291/12 167/168/12
f 167/168/12 171/294/12 175/169/12
f 182/143/1 184/166/1 183/171/1
f 184/138/2 186/144/2 185/172/2
f 186/145/3 188/171/3 187/173/3
f 188/144/4 190/146/4 189/174/4
f 190/146/5 192/173/5 191/175/5
f 192/176/6 194/297/6 193/177/6
f 194/178/7 196/150/7 195/179/7
f 196/181/8 198/298/8 197/182/8
f 186/186/9 184/299/9 182/300/9
f 182/300/9 200/301/9 198/184/9
f 198/184/9 196/302/9 194/303/9
f 194/303/9 192/304/9 190/185/9
f 190/185/9 188/305/9 186/186/9
f 186/186/9 182/300/9 198/184/9
f 198/184/9 194/303/9 190/185/9
f 198/150/10 200/155/10 199/187/10
f 200/188/11 182/157/11 181/189/11
f 199/192/12 181/306/12 183/307/12
f 183/307/12 185/308/12 187/190/12
f 187/190/12 189/309/12 191/310/12
f 191/310/12 193/311/12 195/191/12
f 195/191/12 197/312/12 199/192/12
f 199/192/12 183/307/12 187/190/12
f 187/190/12 191/310/12 195/191/12
l 122 121
l 123 122
l 124 123
l 125 124
l 126 125
l 127 126
l 128 127
l 129 128
l 130 129
l 131 130
l 132 131
l 133 132
l 134 133
l 135 134
l 136 135
l 137 136
l 138 137
l 139 138
l 140 139
l 141 140
l 142 141
l 143 142
l 144 143
l 145 144
l 146 145
l 147 146
l 148 147
l 149 148
l 150 149
l 151 150
l 152 151
l 121 152
