{
	"asset":{
		"generator":"Khronos glTF Blender I/O v4.0.44",
		"version":"2.0"
	},
	"scene":0,
	"scenes":[
		{
			"name":"Scene",
			"nodes":[
				0,
				1,
				2,
				3
			]
		}
	],
	"nodes":[
		{
			"mesh":0,
			"name":"Palica",
			"rotation":[
				-0.6069852113723755,
				0.7006273865699768,
				-0.22972425818443298,
				0.29650798439979553
			]
		},
		{
			"mesh":1,
			"name":"Listek",
			"rotation":[
				0.021498307585716248,
				-0.06487332284450531,
				0.8914981484413147,
				0.4478395879268646
			],
			"scale":[
				0.34188413619995117,
				0.34188413619995117,
				0.34188413619995117
			],
			"translation":[
				-0.37932512164115906,
				24.94462013244629,
				0.03215837478637695
			]
		},
		{
			"mesh":2,
			"name":"Listek.001",
			"rotation":[
				0.8292729258537292,
				0.4489858150482178,
				0.2617327868938446,
				0.20546086132526398
			],
			"scale":[
				0.5391035079956055,
				0.5391035079956055,
				0.5391035079956055
			],
			"translation":[
				0.24975457787513733,
				4.658955097198486,
				0.534684956073761
			]
		},
		{
			"mesh":3,
			"name":"Listek.002",
			"rotation":[
				0.32984620332717896,
				0.17892540991306305,
				0.6883094310760498,
				0.6208199858665466
			],
			"scale":[
				0.19124573469161987,
				0.19124574959278107,
				0.19124571979045868
			],
			"translation":[
				-0.5398152470588684,
				16.472017288208008,
				0.7252287864685059
			]
		}
	],
	"materials":[
		{
			"doubleSided":true,
			"name":"Material.001",
			"pbrMetallicRoughness":{
				"baseColorFactor":[
					0.18314623832702637,
					0.06546289473772049,
					0.0209573432803154,
					1
				],
				"metallicFactor":0,
				"roughnessFactor":0.5
			}
		},
		{
			"doubleSided":true,
			"name":"Material.002",
			"pbrMetallicRoughness":{
				"baseColorFactor":[
					0.07379427552223206,
					0.4715888500213623,
					0.04183538258075714,
					1
				],
				"metallicFactor":0,
				"roughnessFactor":0.5
			}
		},
		{
			"doubleSided":true,
			"name":"Material.003",
			"pbrMetallicRoughness":{
				"baseColorFactor":[
					0.07379427552223206,
					0.4715888500213623,
					0.04183538258075714,
					1
				],
				"metallicFactor":0,
				"roughnessFactor":0.5
			}
		},
		{
			"doubleSided":true,
			"name":"Material.004",
			"pbrMetallicRoughness":{
				"baseColorFactor":[
					0.07379427552223206,
					0.4715888500213623,
					0.04183538258075714,
					1
				],
				"metallicFactor":0,
				"roughnessFactor":0.5
			}
		}
	],
	"meshes":[
		{
			"name":"Cylinder.001",
			"primitives":[
				{
					"attributes":{
						"POSITION":0,
						"NORMAL":1,
						"TEXCOORD_0":2
					},
					"indices":3,
					"material":0
				}
			]
		},
		{
			"name":"Plane",
			"primitives":[
				{
					"attributes":{
						"POSITION":4,
						"NORMAL":5,
						"TEXCOORD_0":6
					},
					"indices":7,
					"material":1
				}
			]
		},
		{
			"name":"Plane.001",
			"primitives":[
				{
					"attributes":{
						"POSITION":8,
						"NORMAL":9,
						"TEXCOORD_0":10
					},
					"indices":7,
					"material":2
				}
			]
		},
		{
			"name":"Plane.002",
			"primitives":[
				{
					"attributes":{
						"POSITION":11,
						"NORMAL":12,
						"TEXCOORD_0":13
					},
					"indices":7,
					"material":3
				}
			]
		}
	],
	"accessors":[
		{
			"bufferView":0,
			"componentType":5126,
			"count":360,
			"max":[
				7.158898830413818,
				6.3556084632873535,
				1.772667646408081
			],
			"min":[
				-37.91072082519531,
				-1.8521908521652222,
				-1.0074743032455444
			],
			"type":"VEC3"
		},
		{
			"bufferView":1,
			"componentType":5126,
			"count":360,
			"type":"VEC3"
		},
		{
			"bufferView":2,
			"componentType":5126,
			"count":360,
			"type":"VEC2"
		},
		{
			"bufferView":3,
			"componentType":5123,
			"count":684,
			"type":"SCALAR"
		},
		{
			"bufferView":4,
			"componentType":5126,
			"count":214,
			"max":[
				9.307954788208008,
				1.2255934476852417,
				2.2384121417999268
			],
			"min":[
				-0.018611863255500793,
				0.07862448692321777,
				-2.3652374744415283
			],
			"type":"VEC3"
		},
		{
			"bufferView":5,
			"componentType":5126,
			"count":214,
			"type":"VEC3"
		},
		{
			"bufferView":6,
			"componentType":5126,
			"count":214,
			"type":"VEC2"
		},
		{
			"bufferView":7,
			"componentType":5123,
			"count":324,
			"type":"SCALAR"
		},
		{
			"bufferView":8,
			"componentType":5126,
			"count":214,
			"max":[
				9.307954788208008,
				1.2255934476852417,
				2.2384121417999268
			],
			"min":[
				-0.018611863255500793,
				0.07862448692321777,
				-2.3652374744415283
			],
			"type":"VEC3"
		},
		{
			"bufferView":9,
			"componentType":5126,
			"count":214,
			"type":"VEC3"
		},
		{
			"bufferView":10,
			"componentType":5126,
			"count":214,
			"type":"VEC2"
		},
		{
			"bufferView":11,
			"componentType":5126,
			"count":214,
			"max":[
				9.307954788208008,
				1.2255934476852417,
				2.2384121417999268
			],
			"min":[
				-0.018611863255500793,
				0.07862448692321777,
				-2.3652374744415283
			],
			"type":"VEC3"
		},
		{
			"bufferView":12,
			"componentType":5126,
			"count":214,
			"type":"VEC3"
		},
		{
			"bufferView":13,
			"componentType":5126,
			"count":214,
			"type":"VEC2"
		}
	],
	"bufferViews":[
		{
			"buffer":0,
			"byteLength":4320,
			"byteOffset":0,
			"target":34962
		},
		{
			"buffer":0,
			"byteLength":4320,
			"byteOffset":4320,
			"target":34962
		},
		{
			"buffer":0,
			"byteLength":2880,
			"byteOffset":8640,
			"target":34962
		},
		{
			"buffer":0,
			"byteLength":1368,
			"byteOffset":11520,
			"target":34963
		},
		{
			"buffer":0,
			"byteLength":2568,
			"byteOffset":12888,
			"target":34962
		},
		{
			"buffer":0,
			"byteLength":2568,
			"byteOffset":15456,
			"target":34962
		},
		{
			"buffer":0,
			"byteLength":1712,
			"byteOffset":18024,
			"target":34962
		},
		{
			"buffer":0,
			"byteLength":648,
			"byteOffset":19736,
			"target":34963
		},
		{
			"buffer":0,
			"byteLength":2568,
			"byteOffset":20384,
			"target":34962
		},
		{
			"buffer":0,
			"byteLength":2568,
			"byteOffset":22952,
			"target":34962
		},
		{
			"buffer":0,
			"byteLength":1712,
			"byteOffset":25520,
			"target":34962
		},
		{
			"buffer":0,
			"byteLength":2568,
			"byteOffset":27232,
			"target":34962
		},
		{
			"buffer":0,
			"byteLength":2568,
			"byteOffset":29800,
			"target":34962
		},
		{
			"buffer":0,
			"byteLength":1712,
			"byteOffset":32368,
			"target":34962
		}
	],
	"buffers":[
		{
			"byteLength":34080,
			"uri":"starterRodv3.bin"
		}
	]
}
