{
	"asset":{
		"generator":"Khronos glTF Blender I/O v4.2.60",
		"version":"2.0"
	},
	"extensionsUsed":[
		"KHR_materials_unlit"
	],
	"scene":0,
	"scenes":[
		{
			"name":"Scene",
			"nodes":[
				0,
				1,
				2,
				3,
				4
			]
		}
	],
	"nodes":[
		{
			"extras":{
				"is_water":true,
				"water_type":"lake"
			},
			"mesh":0,
			"name":"lake",
			"translation":[
				-19.895071029663086,
				16.919448852539062,
				5.062856674194336
			]
		},
		{
			"extras":{
				"is_water":false
			},
			"mesh":1,
			"name":"ground"
		},
		{
			"extras":{
				"is_water":true,
				"water_type":"sea"
			},
			"mesh":2,
			"name":"sea",
			"scale":[
				0.6779418587684631,
				0.6779418587684631,
				0.6779418587684631
			],
			"translation":[
				0,
				1.7215709686279297,
				0
			]
		},
		{
			"mesh":3,
			"name":"Cube",
			"scale":[
				3.632869005203247,
				3.632869005203247,
				3.632869005203247
			],
			"translation":[
				-7.202632427215576,
				22.630014419555664,
				-19.568939208984375
			]
		},
		{
			"name":"Circle"
		}
	],
	"materials":[
		{
			"doubleSided":true,
			"extensions":{
				"KHR_materials_unlit":{}
			},
			"name":"water",
			"pbrMetallicRoughness":{
				"baseColorTexture":{
					"index":0
				},
				"metallicFactor":0,
				"roughnessFactor":0.9
			}
		},
		{
			"doubleSided":true,
			"name":"Material",
			"pbrMetallicRoughness":{
				"baseColorTexture":{
					"index":1
				},
				"metallicFactor":0,
				"roughnessFactor":0.7454545497894287
			}
		},
		{
			"doubleSided":true,
			"extensions":{
				"KHR_materials_unlit":{}
			},
			"name":"sea",
			"pbrMetallicRoughness":{
				"baseColorTexture":{
					"index":2
				},
				"metallicFactor":0,
				"roughnessFactor":0.9
			}
		},
		{
			"doubleSided":true,
			"name":"Material.001",
			"pbrMetallicRoughness":{
				"baseColorFactor":[
					0.800000011920929,
					0.800000011920929,
					0.800000011920929,
					1
				],
				"metallicFactor":0,
				"roughnessFactor":0.5
			}
		}
	],
	"meshes":[
		{
			"name":"Plane.003",
			"primitives":[
				{
					"attributes":{
						"POSITION":0,
						"NORMAL":1,
						"TEXCOORD_0":2
					},
					"indices":3,
					"material":0
				}
			]
		},
		{
			"name":"Plane.002",
			"primitives":[
				{
					"attributes":{
						"POSITION":4,
						"NORMAL":5,
						"TEXCOORD_0":6
					},
					"indices":7,
					"material":1
				}
			]
		},
		{
			"name":"Plane",
			"primitives":[
				{
					"attributes":{
						"POSITION":8,
						"NORMAL":9,
						"TEXCOORD_0":10
					},
					"indices":11,
					"material":2
				}
			]
		},
		{
			"name":"Cube",
			"primitives":[
				{
					"attributes":{
						"POSITION":12,
						"NORMAL":13,
						"TEXCOORD_0":14
					},
					"indices":15,
					"material":3
				}
			]
		}
	],
	"textures":[
		{
			"sampler":0,
			"source":0
		},
		{
			"sampler":0,
			"source":1
		},
		{
			"sampler":0,
			"source":0
		}
	],
	"images":[
		{
			"mimeType":"image/png",
			"name":"ny",
			"uri":"ny.png"
		},
		{
			"mimeType":"image/png",
			"name":"texture",
			"uri":"texture.png"
		}
	],
	"accessors":[
		{
			"bufferView":0,
			"componentType":5126,
			"count":10,
			"max":[
				23.125381469726562,
				9.536742595628311e-07,
				38.90483474731445
			],
			"min":[
				-19.91233253479004,
				-1.6689299400240998e-06,
				-35.556243896484375
			],
			"type":"VEC3"
		},
		{
			"bufferView":1,
			"componentType":5126,
			"count":10,
			"type":"VEC3"
		},
		{
			"bufferView":2,
			"componentType":5126,
			"count":10,
			"type":"VEC2"
		},
		{
			"bufferView":3,
			"componentType":5123,
			"count":18,
			"type":"SCALAR"
		},
		{
			"bufferView":4,
			"componentType":5126,
			"count":6502,
			"max":[
				65,
				20.807748794555664,
				65.05401611328125
			],
			"min":[
				-65.02400970458984,
				-5.481406333274208e-05,
				-65.0439682006836
			],
			"type":"VEC3"
		},
		{
			"bufferView":5,
			"componentType":5126,
			"count":6502,
			"type":"VEC3"
		},
		{
			"bufferView":6,
			"componentType":5126,
			"count":6502,
			"type":"VEC2"
		},
		{
			"bufferView":7,
			"componentType":5123,
			"count":10086,
			"type":"SCALAR"
		},
		{
			"bufferView":8,
			"componentType":5126,
			"count":4,
			"max":[
				151.07154846191406,
				0,
				151.07154846191406
			],
			"min":[
				-151.07154846191406,
				0,
				-151.07154846191406
			],
			"type":"VEC3"
		},
		{
			"bufferView":9,
			"componentType":5126,
			"count":4,
			"type":"VEC3"
		},
		{
			"bufferView":10,
			"componentType":5126,
			"count":4,
			"type":"VEC2"
		},
		{
			"bufferView":11,
			"componentType":5123,
			"count":6,
			"type":"SCALAR"
		},
		{
			"bufferView":12,
			"componentType":5126,
			"count":24,
			"max":[
				1,
				1,
				1
			],
			"min":[
				-1,
				-1,
				-1
			],
			"type":"VEC3"
		},
		{
			"bufferView":13,
			"componentType":5126,
			"count":24,
			"type":"VEC3"
		},
		{
			"bufferView":14,
			"componentType":5126,
			"count":24,
			"type":"VEC2"
		},
		{
			"bufferView":15,
			"componentType":5123,
			"count":36,
			"type":"SCALAR"
		}
	],
	"bufferViews":[
		{
			"buffer":0,
			"byteLength":120,
			"byteOffset":0,
			"target":34962
		},
		{
			"buffer":0,
			"byteLength":120,
			"byteOffset":120,
			"target":34962
		},
		{
			"buffer":0,
			"byteLength":80,
			"byteOffset":240,
			"target":34962
		},
		{
			"buffer":0,
			"byteLength":36,
			"byteOffset":320,
			"target":34963
		},
		{
			"buffer":0,
			"byteLength":78024,
			"byteOffset":356,
			"target":34962
		},
		{
			"buffer":0,
			"byteLength":78024,
			"byteOffset":78380,
			"target":34962
		},
		{
			"buffer":0,
			"byteLength":52016,
			"byteOffset":156404,
			"target":34962
		},
		{
			"buffer":0,
			"byteLength":20172,
			"byteOffset":208420,
			"target":34963
		},
		{
			"buffer":0,
			"byteLength":48,
			"byteOffset":228592,
			"target":34962
		},
		{
			"buffer":0,
			"byteLength":48,
			"byteOffset":228640,
			"target":34962
		},
		{
			"buffer":0,
			"byteLength":32,
			"byteOffset":228688,
			"target":34962
		},
		{
			"buffer":0,
			"byteLength":12,
			"byteOffset":228720,
			"target":34963
		},
		{
			"buffer":0,
			"byteLength":288,
			"byteOffset":228732,
			"target":34962
		},
		{
			"buffer":0,
			"byteLength":288,
			"byteOffset":229020,
			"target":34962
		},
		{
			"buffer":0,
			"byteLength":192,
			"byteOffset":229308,
			"target":34962
		},
		{
			"buffer":0,
			"byteLength":72,
			"byteOffset":229500,
			"target":34963
		}
	],
	"samplers":[
		{
			"magFilter":9729,
			"minFilter":9987
		}
	],
	"buffers":[
		{
			"byteLength":229572,
			"uri":"map.bin"
		}
	]
}
