{
	"asset":{
		"generator":"Khronos glTF Blender I/O v4.2.60",
		"version":"2.0"
	},
	"scene":0,
	"scenes":[
		{
			"name":"Scene",
			"nodes":[
				0,
				1,
				2
			]
		}
	],
	"nodes":[
		{
			"extras":{
				"is_water":true,
				"water_type":"lake"
			},
			"mesh":0,
			"name":"lake",
			"scale":[
				36.38496017456055,
				47.06922912597656,
				47.06922912597656
			],
			"translation":[
				-19.895071029663086,
				16.919448852539062,
				5.062856674194336
			]
		},
		{
			"extras":{
				"is_water":false
			},
			"mesh":1,
			"name":"ground"
		},
		{
			"extras":{
				"is_water":true,
				"water_type":"sea"
			},
			"mesh":2,
			"name":"sea"
		}
	],
	"materials":[
		{
			"alphaMode":"BLEND",
			"doubleSided":true,
			"name":"water",
			"pbrMetallicRoughness":{
				"baseColorFactor":[
					0.10921711474657059,
					0.44164445996284485,
					0.8002663850784302,
					0.75
				],
				"metallicFactor":0,
				"roughnessFactor":0
			}
		},
		{
			"doubleSided":true,
			"name":"Material",
			"pbrMetallicRoughness":{
				"baseColorTexture":{
					"index":0
				},
				"metallicFactor":0,
				"roughnessFactor":0.7454545497894287
			}
		},
		{
			"doubleSided":true,
			"name":"water.001",
			"pbrMetallicRoughness":{
				"baseColorFactor":[
					0.10921711474657059,
					0.44164445996284485,
					0.8002663850784302,
					1
				],
				"metallicFactor":0,
				"roughnessFactor":0
			}
		}
	],
	"meshes":[
		{
			"name":"Plane.003",
			"primitives":[
				{
					"attributes":{
						"POSITION":0,
						"NORMAL":1,
						"TEXCOORD_0":2
					},
					"indices":3,
					"material":0
				}
			]
		},
		{
			"name":"Plane.002",
			"primitives":[
				{
					"attributes":{
						"POSITION":4,
						"NORMAL":5,
						"TEXCOORD_0":6
					},
					"indices":7,
					"material":1
				}
			]
		},
		{
			"name":"Plane",
			"primitives":[
				{
					"attributes":{
						"POSITION":8,
						"NORMAL":9,
						"TEXCOORD_0":10
					},
					"indices":11,
					"material":2
				}
			]
		}
	],
	"textures":[
		{
			"sampler":0,
			"source":0
		}
	],
	"images":[
		{
			"mimeType":"image/png",
			"name":"texture",
			"uri":"texture.png"
		}
	],
	"accessors":[
		{
			"bufferView":0,
			"componentType":5126,
			"count":6,
			"max":[
				0.6355752944946289,
				2.0261097688489826e-08,
				0.826545000076294
			],
			"min":[
				-0.5472682118415833,
				-3.5456920954857196e-08,
				-0.7554031610488892
			],
			"type":"VEC3"
		},
		{
			"bufferView":1,
			"componentType":5126,
			"count":6,
			"type":"VEC3"
		},
		{
			"bufferView":2,
			"componentType":5126,
			"count":6,
			"type":"VEC2"
		},
		{
			"bufferView":3,
			"componentType":5123,
			"count":12,
			"type":"SCALAR"
		},
		{
			"bufferView":4,
			"componentType":5126,
			"count":6502,
			"max":[
				65,
				20.807748794555664,
				65.05401611328125
			],
			"min":[
				-65.02400970458984,
				-5.481406333274208e-05,
				-65.0439682006836
			],
			"type":"VEC3"
		},
		{
			"bufferView":5,
			"componentType":5126,
			"count":6502,
			"type":"VEC3"
		},
		{
			"bufferView":6,
			"componentType":5126,
			"count":6502,
			"type":"VEC2"
		},
		{
			"bufferView":7,
			"componentType":5123,
			"count":10086,
			"type":"SCALAR"
		},
		{
			"bufferView":8,
			"componentType":5126,
			"count":4,
			"max":[
				96.64411163330078,
				2.5353245735168457,
				96.64411163330078
			],
			"min":[
				-96.64411163330078,
				2.5353245735168457,
				-96.64411163330078
			],
			"type":"VEC3"
		},
		{
			"bufferView":9,
			"componentType":5126,
			"count":4,
			"type":"VEC3"
		},
		{
			"bufferView":10,
			"componentType":5126,
			"count":4,
			"type":"VEC2"
		},
		{
			"bufferView":11,
			"componentType":5123,
			"count":6,
			"type":"SCALAR"
		}
	],
	"bufferViews":[
		{
			"buffer":0,
			"byteLength":72,
			"byteOffset":0,
			"target":34962
		},
		{
			"buffer":0,
			"byteLength":72,
			"byteOffset":72,
			"target":34962
		},
		{
			"buffer":0,
			"byteLength":48,
			"byteOffset":144,
			"target":34962
		},
		{
			"buffer":0,
			"byteLength":24,
			"byteOffset":192,
			"target":34963
		},
		{
			"buffer":0,
			"byteLength":78024,
			"byteOffset":216,
			"target":34962
		},
		{
			"buffer":0,
			"byteLength":78024,
			"byteOffset":78240,
			"target":34962
		},
		{
			"buffer":0,
			"byteLength":52016,
			"byteOffset":156264,
			"target":34962
		},
		{
			"buffer":0,
			"byteLength":20172,
			"byteOffset":208280,
			"target":34963
		},
		{
			"buffer":0,
			"byteLength":48,
			"byteOffset":228452,
			"target":34962
		},
		{
			"buffer":0,
			"byteLength":48,
			"byteOffset":228500,
			"target":34962
		},
		{
			"buffer":0,
			"byteLength":32,
			"byteOffset":228548,
			"target":34962
		},
		{
			"buffer":0,
			"byteLength":12,
			"byteOffset":228580,
			"target":34963
		}
	],
	"samplers":[
		{
			"magFilter":9729,
			"minFilter":9987
		}
	],
	"buffers":[
		{
			"byteLength":228592,
			"uri":"map.bin"
		}
	]
}
