{
	"asset":{
		"generator":"Khronos glTF Blender I/O v4.2.60",
		"version":"2.0"
	},
	"extensionsUsed":[
		"KHR_materials_unlit",
		"KHR_lights_punctual"
	],
	"extensionsRequired":[
		"KHR_lights_punctual"
	],
	"extensions":{
		"KHR_lights_punctual":{
			"lights":[
				{
					"color":[
						1,
						1,
						1
					],
					"intensity":1366,
					"type":"directional",
					"name":"Sun.001"
				}
			]
		}
	},
	"scene":0,
	"scenes":[
		{
			"name":"Scene",
			"nodes":[
				0,
				1,
				2,
				3,
				4
			]
		}
	],
	"nodes":[
		{
			"extras":{
				"is_water":true,
				"water_type":"lake"
			},
			"mesh":0,
			"name":"lake",
			"translation":[
				-19.895071029663086,
				16.919448852539062,
				5.062856674194336
			]
		},
		{
			"extras":{
				"is_water":false
			},
			"mesh":1,
			"name":"ground"
		},
		{
			"extras":{
				"is_water":true,
				"water_type":"sea"
			},
			"mesh":2,
			"name":"sea",
			"scale":[
				0.6779418587684631,
				0.6779418587684631,
				0.6779418587684631
			],
			"translation":[
				0,
				1.7215709686279297,
				0
			]
		},
		{
			"extensions":{
				"KHR_lights_punctual":{
					"light":0
				}
			},
			"name":"sun",
			"rotation":[
				-0.6930649280548096,
				0.3998536765575409,
				-0.1402176320552826,
				0.5831955671310425
			],
			"translation":[
				0,
				53.26467514038086,
				0
			]
		},
		{
			"mesh":3,
			"name":"tree",
			"scale":[
				0.20972293615341187,
				0.20972293615341187,
				0.20972293615341187
			],
			"translation":[
				-8.628259658813477,
				20.065685272216797,
				-19.77446746826172
			]
		}
	],
	"materials":[
		{
			"doubleSided":true,
			"extensions":{
				"KHR_materials_unlit":{}
			},
			"name":"water",
			"pbrMetallicRoughness":{
				"baseColorTexture":{
					"index":0
				},
				"metallicFactor":0,
				"roughnessFactor":0.9
			}
		},
		{
			"doubleSided":true,
			"name":"Material",
			"pbrMetallicRoughness":{
				"baseColorTexture":{
					"index":1
				},
				"metallicFactor":0,
				"roughnessFactor":0.7454545497894287
			}
		},
		{
			"doubleSided":true,
			"extensions":{
				"KHR_materials_unlit":{}
			},
			"name":"sea",
			"pbrMetallicRoughness":{
				"baseColorTexture":{
					"index":2
				},
				"metallicFactor":0,
				"roughnessFactor":0.9
			}
		},
		{
			"doubleSided":true,
			"name":"leaves",
			"pbrMetallicRoughness":{
				"baseColorFactor":[
					0.012349612079560757,
					0.16617117822170258,
					0.00705735944211483,
					1
				],
				"metallicFactor":0,
				"roughnessFactor":0.5
			}
		},
		{
			"doubleSided":true,
			"name":"trunk",
			"pbrMetallicRoughness":{
				"baseColorFactor":[
					0.1377561241388321,
					0.07905656099319458,
					0.0579320564866066,
					1
				],
				"metallicFactor":0,
				"roughnessFactor":0.5
			}
		}
	],
	"meshes":[
		{
			"name":"Plane.003",
			"primitives":[
				{
					"attributes":{
						"POSITION":0,
						"NORMAL":1,
						"TEXCOORD_0":2
					},
					"indices":3,
					"material":0
				}
			]
		},
		{
			"name":"Plane.002",
			"primitives":[
				{
					"attributes":{
						"POSITION":4,
						"NORMAL":5,
						"TEXCOORD_0":6
					},
					"indices":7,
					"material":1
				}
			]
		},
		{
			"name":"Plane",
			"primitives":[
				{
					"attributes":{
						"POSITION":8,
						"NORMAL":9,
						"TEXCOORD_0":10
					},
					"indices":11,
					"material":2
				}
			]
		},
		{
			"name":"Circle.002",
			"primitives":[
				{
					"attributes":{
						"POSITION":12,
						"NORMAL":13,
						"TEXCOORD_0":14
					},
					"indices":15,
					"material":3
				},
				{
					"attributes":{
						"POSITION":16,
						"NORMAL":17,
						"TEXCOORD_0":18
					},
					"indices":19,
					"material":4
				}
			]
		}
	],
	"textures":[
		{
			"sampler":0,
			"source":0
		},
		{
			"sampler":0,
			"source":1
		},
		{
			"sampler":0,
			"source":0
		}
	],
	"images":[
		{
			"mimeType":"image/png",
			"name":"ny",
			"uri":"ny.png"
		},
		{
			"mimeType":"image/png",
			"name":"texture",
			"uri":"texture.png"
		}
	],
	"accessors":[
		{
			"bufferView":0,
			"componentType":5126,
			"count":10,
			"max":[
				23.125381469726562,
				9.536742595628311e-07,
				38.90483474731445
			],
			"min":[
				-19.91233253479004,
				-1.6689299400240998e-06,
				-35.556243896484375
			],
			"type":"VEC3"
		},
		{
			"bufferView":1,
			"componentType":5126,
			"count":10,
			"type":"VEC3"
		},
		{
			"bufferView":2,
			"componentType":5126,
			"count":10,
			"type":"VEC2"
		},
		{
			"bufferView":3,
			"componentType":5123,
			"count":18,
			"type":"SCALAR"
		},
		{
			"bufferView":4,
			"componentType":5126,
			"count":6502,
			"max":[
				65,
				20.807748794555664,
				65.05401611328125
			],
			"min":[
				-65.02400970458984,
				-5.481406333274208e-05,
				-65.0439682006836
			],
			"type":"VEC3"
		},
		{
			"bufferView":5,
			"componentType":5126,
			"count":6502,
			"type":"VEC3"
		},
		{
			"bufferView":6,
			"componentType":5126,
			"count":6502,
			"type":"VEC2"
		},
		{
			"bufferView":7,
			"componentType":5123,
			"count":10086,
			"type":"SCALAR"
		},
		{
			"bufferView":8,
			"componentType":5126,
			"count":4,
			"max":[
				151.07154846191406,
				0,
				151.07154846191406
			],
			"min":[
				-151.07154846191406,
				0,
				-151.07154846191406
			],
			"type":"VEC3"
		},
		{
			"bufferView":9,
			"componentType":5126,
			"count":4,
			"type":"VEC3"
		},
		{
			"bufferView":10,
			"componentType":5126,
			"count":4,
			"type":"VEC2"
		},
		{
			"bufferView":11,
			"componentType":5123,
			"count":6,
			"type":"SCALAR"
		},
		{
			"bufferView":12,
			"componentType":5126,
			"count":233,
			"max":[
				11.483301162719727,
				39.42142868041992,
				11.922152519226074
			],
			"min":[
				-10.961701393127441,
				16.449155807495117,
				-11.671638488769531
			],
			"type":"VEC3"
		},
		{
			"bufferView":13,
			"componentType":5126,
			"count":233,
			"type":"VEC3"
		},
		{
			"bufferView":14,
			"componentType":5126,
			"count":233,
			"type":"VEC2"
		},
		{
			"bufferView":15,
			"componentType":5123,
			"count":357,
			"type":"SCALAR"
		},
		{
			"bufferView":16,
			"componentType":5126,
			"count":380,
			"max":[
				1.9795289039611816,
				18.732471466064453,
				1.1011831760406494
			],
			"min":[
				-2.3151540756225586,
				0,
				-4.576920986175537
			],
			"type":"VEC3"
		},
		{
			"bufferView":17,
			"componentType":5126,
			"count":380,
			"type":"VEC3"
		},
		{
			"bufferView":18,
			"componentType":5126,
			"count":380,
			"type":"VEC2"
		},
		{
			"bufferView":19,
			"componentType":5123,
			"count":645,
			"type":"SCALAR"
		}
	],
	"bufferViews":[
		{
			"buffer":0,
			"byteLength":120,
			"byteOffset":0,
			"target":34962
		},
		{
			"buffer":0,
			"byteLength":120,
			"byteOffset":120,
			"target":34962
		},
		{
			"buffer":0,
			"byteLength":80,
			"byteOffset":240,
			"target":34962
		},
		{
			"buffer":0,
			"byteLength":36,
			"byteOffset":320,
			"target":34963
		},
		{
			"buffer":0,
			"byteLength":78024,
			"byteOffset":356,
			"target":34962
		},
		{
			"buffer":0,
			"byteLength":78024,
			"byteOffset":78380,
			"target":34962
		},
		{
			"buffer":0,
			"byteLength":52016,
			"byteOffset":156404,
			"target":34962
		},
		{
			"buffer":0,
			"byteLength":20172,
			"byteOffset":208420,
			"target":34963
		},
		{
			"buffer":0,
			"byteLength":48,
			"byteOffset":228592,
			"target":34962
		},
		{
			"buffer":0,
			"byteLength":48,
			"byteOffset":228640,
			"target":34962
		},
		{
			"buffer":0,
			"byteLength":32,
			"byteOffset":228688,
			"target":34962
		},
		{
			"buffer":0,
			"byteLength":12,
			"byteOffset":228720,
			"target":34963
		},
		{
			"buffer":0,
			"byteLength":2796,
			"byteOffset":228732,
			"target":34962
		},
		{
			"buffer":0,
			"byteLength":2796,
			"byteOffset":231528,
			"target":34962
		},
		{
			"buffer":0,
			"byteLength":1864,
			"byteOffset":234324,
			"target":34962
		},
		{
			"buffer":0,
			"byteLength":714,
			"byteOffset":236188,
			"target":34963
		},
		{
			"buffer":0,
			"byteLength":4560,
			"byteOffset":236904,
			"target":34962
		},
		{
			"buffer":0,
			"byteLength":4560,
			"byteOffset":241464,
			"target":34962
		},
		{
			"buffer":0,
			"byteLength":3040,
			"byteOffset":246024,
			"target":34962
		},
		{
			"buffer":0,
			"byteLength":1290,
			"byteOffset":249064,
			"target":34963
		}
	],
	"samplers":[
		{
			"magFilter":9729,
			"minFilter":9987
		}
	],
	"buffers":[
		{
			"byteLength":250356,
			"uri":"map.bin"
		}
	]
}
