{
	"asset":{
		"generator":"Khronos glTF Blender I/O v4.2.60",
		"version":"2.0"
	},
	"scene":0,
	"scenes":[
		{
			"name":"Scene",
			"nodes":[
				0
			]
		}
	],
	"nodes":[
		{
			"mesh":0,
			"name":"Cone",
			"rotation":[
				0,
				0,
				1,
				1.6292068494294654e-07
			]
		}
	],
	"materials":[
		{
			"doubleSided":true,
			"name":"red",
			"pbrMetallicRoughness":{
				"baseColorFactor":[
					0.8003851175308228,
					0.06577233225107193,
					0.046724166721105576,
					1
				],
				"metallicFactor":0,
				"roughnessFactor":0.5
			}
		},
		{
			"doubleSided":true,
			"name":"black",
			"pbrMetallicRoughness":{
				"baseColorFactor":[
					0.008837392553687096,
					0.008837392553687096,
					0.008837392553687096,
					1
				],
				"metallicFactor":0,
				"roughnessFactor":0.5
			}
		},
		{
			"doubleSided":true,
			"name":"yellow",
			"pbrMetallicRoughness":{
				"baseColorFactor":[
					0.8003705143928528,
					0.6129475831985474,
					0.1450401395559311,
					1
				],
				"metallicFactor":0,
				"roughnessFactor":0.5
			}
		}
	],
	"meshes":[
		{
			"name":"Cone",
			"primitives":[
				{
					"attributes":{
						"POSITION":0,
						"NORMAL":1,
						"TEXCOORD_0":2
					},
					"indices":3,
					"material":0
				},
				{
					"attributes":{
						"POSITION":4,
						"NORMAL":5,
						"TEXCOORD_0":6
					},
					"indices":7,
					"material":1
				},
				{
					"attributes":{
						"POSITION":8,
						"NORMAL":9,
						"TEXCOORD_0":10
					},
					"indices":11,
					"material":2
				}
			]
		}
	],
	"accessors":[
		{
			"bufferView":0,
			"componentType":5126,
			"count":96,
			"max":[
				1,
				1,
				1
			],
			"min":[
				-1.000000238418579,
				-4.479721546173096,
				-1
			],
			"type":"VEC3"
		},
		{
			"bufferView":1,
			"componentType":5126,
			"count":96,
			"type":"VEC3"
		},
		{
			"bufferView":2,
			"componentType":5126,
			"count":96,
			"type":"VEC2"
		},
		{
			"bufferView":3,
			"componentType":5123,
			"count":138,
			"type":"SCALAR"
		},
		{
			"bufferView":4,
			"componentType":5126,
			"count":32,
			"max":[
				1,
				-1,
				1
			],
			"min":[
				-1.000000238418579,
				-1.3716280460357666,
				-1
			],
			"type":"VEC3"
		},
		{
			"bufferView":5,
			"componentType":5126,
			"count":32,
			"type":"VEC3"
		},
		{
			"bufferView":6,
			"componentType":5126,
			"count":32,
			"type":"VEC2"
		},
		{
			"bufferView":7,
			"componentType":5123,
			"count":48,
			"type":"SCALAR"
		},
		{
			"bufferView":8,
			"componentType":5126,
			"count":32,
			"max":[
				0.20061109960079193,
				-2.0941696166992188,
				0.20061108469963074
			],
			"min":[
				-0.20061121881008148,
				-3.0666613578796387,
				-0.20061108469963074
			],
			"type":"VEC3"
		},
		{
			"bufferView":9,
			"componentType":5126,
			"count":32,
			"type":"VEC3"
		},
		{
			"bufferView":10,
			"componentType":5126,
			"count":32,
			"type":"VEC2"
		},
		{
			"bufferView":11,
			"componentType":5123,
			"count":48,
			"type":"SCALAR"
		}
	],
	"bufferViews":[
		{
			"buffer":0,
			"byteLength":1152,
			"byteOffset":0,
			"target":34962
		},
		{
			"buffer":0,
			"byteLength":1152,
			"byteOffset":1152,
			"target":34962
		},
		{
			"buffer":0,
			"byteLength":768,
			"byteOffset":2304,
			"target":34962
		},
		{
			"buffer":0,
			"byteLength":276,
			"byteOffset":3072,
			"target":34963
		},
		{
			"buffer":0,
			"byteLength":384,
			"byteOffset":3348,
			"target":34962
		},
		{
			"buffer":0,
			"byteLength":384,
			"byteOffset":3732,
			"target":34962
		},
		{
			"buffer":0,
			"byteLength":256,
			"byteOffset":4116,
			"target":34962
		},
		{
			"buffer":0,
			"byteLength":96,
			"byteOffset":4372,
			"target":34963
		},
		{
			"buffer":0,
			"byteLength":384,
			"byteOffset":4468,
			"target":34962
		},
		{
			"buffer":0,
			"byteLength":384,
			"byteOffset":4852,
			"target":34962
		},
		{
			"buffer":0,
			"byteLength":256,
			"byteOffset":5236,
			"target":34962
		},
		{
			"buffer":0,
			"byteLength":96,
			"byteOffset":5492,
			"target":34963
		}
	],
	"buffers":[
		{
			"byteLength":5588,
			"uri":"float.bin"
		}
	]
}
